<svg width="256" height="16" xmlns="http://www.w3.org/2000/svg">
    <g><rect x="0" y="0" width="16" height="16" fill="#646f8a" stroke="#4a5169" stroke-width="0.5" />
     <line x1="4" y1="0" x2="4" y2="16" stroke="#7a8aa8" stroke-width="0.3" opacity="0.5" />
     </g><g><rect x="16" y="0" width="16" height="16" fill="#2a2a3e" stroke="#1a1a2e" stroke-width="0.5" />
     <rect x="17" y="1" width="14" height="14" fill="#323244" opacity="0.6" />
     </g><g><rect x="32" y="0" width="16" height="16" fill="#6b513d" stroke="#8c6d52" stroke-width="0.5" />
     <rect x="34" y="4" width="12" height="6" fill="#8b6d5a" />
     </g><g><rect x="48" y="0" width="16" height="16" fill="#7a5d48" stroke="#9a7d68" stroke-width="0.5" />
     <circle cx="56" cy="8" r="2" fill="#89b4fa" opacity="0.7" />
     </g><g><rect x="64" y="0" width="16" height="16" fill="#6b513d" stroke="#8c6d52" stroke-width="0.5" />
     <line x1="66" y1="6" x2="78" y2="6" stroke="#8c6d52" stroke-width="0.5" />
     </g><g><rect x="80" y="0" width="16" height="16" fill="#45475a" stroke="#313244" stroke-width="0.5" />
     <circle cx="88" cy="8" r="3" fill="#313244" stroke="#45475a" stroke-width="0.5" />
     <line x1="86" y1="11" x2="90" y2="11" stroke="#313244" stroke-width="0.5" />
     </g><g><rect x="96" y="0" width="16" height="16" fill="#363847" stroke="#2a2a3a" stroke-width="0.5" />
     <circle cx="104" cy="8" r="2.5" fill="#2a2a3a" />
     </g><g><rect x="112" y="0" width="16" height="16" fill="#f5f5f5" stroke="#e0e0e0" stroke-width="0.5" />
     <rect x="115" y="3" width="10" height="10" fill="#d0d0d0" />
     </g><g><rect x="128" y="0" width="16" height="16" fill="#c85a17" stroke="#a83d00" stroke-width="0.5" />
     <rect x="130" y="2" width="12" height="12" fill="#e87722" opacity="0.7" />
     </g><g><rect x="144" y="0" width="16" height="16" fill="#a6e3a1" stroke="#7ec76d" stroke-width="0.5" />
     <rect x="146" y="4" width="12" height="8" fill="#7ec76d" />
     </g><g><rect x="160" y="0" width="16" height="16" fill="#f9e2af" stroke="#d4a017" stroke-width="0.5" />
     <circle cx="165" cy="5" r="2" fill="#d4a017" />
     <circle cx="171" cy="11" r="2" fill="#d4a017" />
     </g><g><rect x="176" y="0" width="16" height="16" fill="#8b5a3c" stroke="#6b3d1f" stroke-width="0.5" />
     <line x1="179" y1="3" x2="189" y2="3" stroke="#6b3d1f" stroke-width="0.3" />
     <line x1="179" y1="8" x2="189" y2="8" stroke="#6b3d1f" stroke-width="0.3" />
     <line x1="179" y1="13" x2="189" y2="13" stroke="#6b3d1f" stroke-width="0.3" />
     </g><g><rect x="192" y="0" width="16" height="16" fill="#8b4048" stroke="#b84c54" stroke-width="0.5" />
     <rect x="195" y="2" width="10" height="12" fill="#b84c54" />
     <circle cx="204" cy="8" r="1" fill="#ffd700" />
     </g><g><rect x="208" y="0" width="16" height="16" fill="#2a2a3e" />
     <ellipse cx="216" cy="10" rx="3" ry="4" fill="#52b788" />
     <ellipse cx="213" cy="7" rx="2" ry="3" fill="#6cc24a" />
     <ellipse cx="219" cy="8" rx="2" ry="3" fill="#6cc24a" />
     <rect x="215" y="14" width="2" height="2" fill="#8b6d5a" />
     </g><g><rect x="224" y="0" width="16" height="16" fill="#2a2a3e" />
     <circle cx="232" cy="8" r="4" fill="#f4d03f" />
     <line x1="232" y1="2" x2="232" y2="4" stroke="#d4a017" stroke-width="0.5" />
     </g><g><rect x="240" y="0" width="16" height="16" fill="#2a2a3e" />
     <circle cx="248" cy="8" r="3" fill="#fffacd" stroke="#f4d03f" stroke-width="0.5" />
     <line x1="248" y1="11" x2="248" y2="14" stroke="#8b6d5a" stroke-width="0.5" />
     </g>
  </svg>